<svg width="612" height="462" viewBox="0 0 612 462" fill="none" xmlns="http://www.w3.org/2000/svg">
<g filter="url(#filter0_f)">
<path d="M221.168 73.88C221.308 73.88 221.447 73.8832 221.587 73.8853C221.315 72.7726 221.168 71.6122 221.168 70.4158C221.168 62.3471 227.71 55.8055 235.78 55.8055C238.953 55.8055 241.889 56.8207 244.285 58.5396C249.274 50.9795 257.844 45.9883 267.581 45.9883C282.985 45.9883 295.471 58.476 295.471 73.88C295.471 73.9743 295.469 74.0687 295.468 74.163C305.253 75.7907 312.715 84.2949 312.715 94.5424C312.715 105.954 303.464 115.205 292.053 115.205H221.168C209.757 115.205 200.506 105.954 200.506 94.5424C200.506 83.1314 209.757 73.88 221.168 73.88Z" fill="url(#paint0_radial)"/>
<path d="M200.506 94.5422C200.506 105.954 209.757 115.205 221.168 115.205C232.58 115.205 241.83 105.954 241.83 94.5422C241.83 83.1312 232.58 73.8799 221.168 73.8799C209.757 73.8799 200.506 83.1312 200.506 94.5422Z" fill="url(#paint1_linear)"/>
<path d="M221.168 70.4155C221.168 78.4852 227.71 85.0258 235.779 85.0258C243.848 85.0258 250.39 78.4852 250.39 70.4155C250.39 62.3468 243.848 55.8052 235.779 55.8052C227.71 55.8052 221.168 62.3468 221.168 70.4155Z" fill="url(#paint2_linear)"/>
<path d="M239.689 73.88C239.689 89.2841 252.175 101.772 267.579 101.772C282.983 101.772 295.471 89.2841 295.471 73.88C295.471 58.476 282.983 45.9883 267.579 45.9883C252.175 45.9883 239.689 58.476 239.689 73.88Z" fill="url(#paint3_linear)"/>
<path d="M271.39 94.5422C271.39 105.954 280.641 115.205 292.053 115.205C303.464 115.205 312.715 105.954 312.715 94.5422C312.715 83.1312 303.464 73.8799 292.053 73.8799C280.641 73.8799 271.39 83.1312 271.39 94.5422Z" fill="url(#paint4_linear)"/>
<path d="M312.523 97.3564C311.151 107.436 302.509 115.204 292.053 115.204H221.168C210.711 115.204 202.07 107.436 200.698 97.3564H312.523Z" fill="url(#paint5_linear)"/>
<path d="M214.661 115.446L215.739 114.368C217.269 112.715 219.458 111.679 221.889 111.679C221.917 111.679 221.945 111.682 221.973 111.682C221.99 111.666 222.006 111.649 222.023 111.633L227.553 106.104C229.958 103.585 233.347 102.013 237.105 102.013C244.401 102.013 250.317 107.927 250.317 115.224C250.317 115.261 250.313 115.297 250.313 115.332C250.471 115.365 250.626 115.404 250.779 115.446H214.661Z" fill="url(#paint6_linear)"/>
</g>
<rect x="136.707" y="249.013" width="298.831" height="298.938" transform="rotate(-45 136.707 249.013)" stroke="#33E0F8"/>
<g clip-path="url(#clip0)">
<path d="M311.582 194.026L313.596 193.027V137.603L290.891 148.868C274.559 156.971 264.229 173.628 264.229 191.859V238.956C264.229 242.282 266.925 244.979 270.251 244.979C272.784 244.979 275.045 243.395 275.911 241.015L280.261 229.056C285.814 213.79 297.03 201.246 311.582 194.026Z" fill="url(#paint7_linear)"/>
<path d="M387.576 194.026L385.563 193.027V137.603L408.268 148.868C424.599 156.971 434.93 173.628 434.93 191.859V238.956C434.93 242.282 432.233 244.979 428.907 244.979C426.375 244.979 424.113 243.395 423.247 241.015L418.897 229.056C413.344 213.79 402.129 201.246 387.576 194.026Z" fill="url(#paint8_linear)"/>
<path d="M399.065 144.222L385.686 137.546L385.559 192.97L387.57 193.973C402.106 201.227 413.292 213.796 418.81 229.075L423.133 241.044C423.993 243.425 426.252 245.015 428.784 245.021C432.11 245.029 434.813 242.338 434.821 239.012L434.929 191.915C434.94 187.234 434.265 182.657 432.986 178.299L399.065 144.222Z" fill="url(#paint9_linear)"/>
<path d="M362.843 8.23056C355.894 -3.19631 343.359 -2.28119 336.316 8.23056C317.054 38.6479 299.9 75.5334 299.847 117.013C299.744 154.838 302.108 192.341 306.936 229.513C308.084 238.358 315.616 244.978 324.535 244.978H374.624C383.542 244.978 391.074 238.358 392.223 229.513C397.051 192.341 399.415 154.838 399.312 117.013C399.035 75.4055 382.213 38.8196 362.843 8.23056Z" fill="url(#paint10_linear)"/>
<path d="M362.842 8.23038C359.36 2.50333 354.474 -0.122422 349.579 0.00594797V244.979H374.624C383.542 244.979 391.074 238.358 392.223 229.513C397.051 192.342 399.415 154.838 399.312 117.013C399.035 75.4053 382.213 38.8194 362.842 8.23038Z" fill="url(#paint11_linear)"/>
<path d="M349.579 132.975C365.726 132.975 378.816 119.885 378.816 103.738C378.816 87.5909 365.726 74.501 349.579 74.501C333.432 74.501 320.342 87.5909 320.342 103.738C320.342 119.885 333.432 132.975 349.579 132.975Z" fill="url(#paint12_linear)"/>
<path d="M349.579 122.648C360.023 122.648 368.489 114.181 368.489 103.738C368.489 93.2943 360.023 84.8281 349.579 84.8281C339.136 84.8281 330.669 93.2943 330.669 103.738C330.669 114.181 339.136 122.648 349.579 122.648Z" fill="url(#paint13_linear)"/>
<path d="M349.579 120.921C359.069 120.921 366.762 113.228 366.762 103.738C366.762 94.2486 359.069 86.5557 349.579 86.5557C340.09 86.5557 332.397 94.2486 332.397 103.738C332.397 113.228 340.09 120.921 349.579 120.921Z" fill="url(#paint14_linear)"/>
<path d="M349.579 39.4133C359.904 39.4133 369.713 38.2093 378.566 36.046C373.755 26.2957 368.405 17.0147 362.843 8.23056C355.894 -3.19631 343.359 -2.28119 336.316 8.23056C330.776 16.9801 325.413 26.267 320.578 36.0421C329.433 38.2074 339.248 39.4133 349.579 39.4133Z" fill="url(#paint15_linear)"/>
<path d="M304.926 212.67C305.542 218.292 306.208 223.907 306.936 229.513C307.012 230.104 307.119 230.684 307.252 231.253H391.907C392.039 230.684 392.146 230.104 392.223 229.513C392.951 223.907 393.616 218.292 394.232 212.67H304.926Z" fill="url(#paint16_linear)"/>
<path d="M300.329 148.189C301.239 175.468 303.437 202.578 306.936 229.513C308.084 238.358 315.616 244.978 324.535 244.978H374.624C383.542 244.978 391.074 238.358 392.223 229.513C395.721 202.578 397.919 175.468 398.829 148.189H300.329Z" fill="url(#paint17_linear)"/>
<path d="M315.984 247.987H310.692C308.15 247.987 306.09 245.927 306.09 243.385V232.235C306.09 229.694 308.15 227.633 310.692 227.633H315.984C318.526 227.633 320.586 229.694 320.586 232.235V243.385C320.586 245.927 318.526 247.987 315.984 247.987Z" fill="url(#paint18_linear)"/>
<path d="M330.481 247.987H325.188C322.646 247.987 320.586 245.927 320.586 243.385V232.235C320.586 229.694 322.646 227.633 325.188 227.633H330.481C333.022 227.633 335.083 229.694 335.083 232.235V243.385C335.083 245.927 333.022 247.987 330.481 247.987Z" fill="url(#paint19_linear)"/>
<path d="M344.977 247.987H339.685C337.143 247.987 335.083 245.927 335.083 243.385V232.235C335.083 229.694 337.143 227.633 339.685 227.633H344.977C347.519 227.633 349.579 229.694 349.579 232.235V243.385C349.579 245.927 347.519 247.987 344.977 247.987Z" fill="url(#paint20_linear)"/>
<path d="M359.474 247.987H354.181C351.639 247.987 349.579 245.927 349.579 243.385V232.235C349.579 229.694 351.639 227.633 354.181 227.633H359.474C362.016 227.633 364.076 229.694 364.076 232.235V243.385C364.076 245.927 362.016 247.987 359.474 247.987Z" fill="url(#paint21_linear)"/>
<path d="M373.97 247.987H368.677C366.135 247.987 364.075 245.927 364.075 243.385V232.235C364.075 229.694 366.135 227.633 368.677 227.633H373.97C376.512 227.633 378.572 229.694 378.572 232.235V243.385C378.572 245.927 376.512 247.987 373.97 247.987Z" fill="url(#paint22_linear)"/>
<path d="M388.467 247.987H383.174C380.633 247.987 378.572 245.927 378.572 243.385V232.235C378.572 229.694 380.633 227.633 383.174 227.633H388.467C391.008 227.633 393.068 229.694 393.068 232.235V243.385C393.068 245.927 391.008 247.987 388.467 247.987Z" fill="url(#paint23_linear)"/>
</g>
<g clip-path="url(#clip1)">
<path d="M298.476 360.285C297.282 362.991 296.613 365.982 296.613 369.13C296.613 380.341 305.028 389.582 315.884 390.897C319.486 405.698 332.826 416.687 348.735 416.687C364.644 416.687 377.985 405.698 381.586 390.897C392.443 389.582 400.857 380.342 400.857 369.13C400.857 365.982 400.189 362.991 398.994 360.285C406.347 358.379 411.688 351.475 411.172 343.415C410.656 335.355 404.174 328.806 396.12 328.214C392.648 327.96 389.387 328.792 386.639 330.406C382.8 332.661 377.989 332.549 374.438 329.863C374.314 329.769 374.187 329.677 374.06 329.586C371.73 327.915 370.115 325.429 369.66 322.598L363.34 268.675L334.129 268.675L327.81 322.598C327.355 325.429 325.739 327.915 323.409 329.586C323.282 329.677 323.157 329.77 323.032 329.864C319.481 332.549 314.67 332.661 310.831 330.406C308.083 328.793 304.822 327.96 301.351 328.215C293.297 328.807 286.814 335.356 286.298 343.415C285.783 351.475 291.123 358.379 298.476 360.285Z" fill="url(#paint24_linear)"/>
<path d="M334.13 268.675L363.341 268.675L373.109 350.677L324.363 350.677L334.13 268.675Z" fill="url(#paint25_linear)"/>
<path d="M334.13 268.675L348.736 268.675L348.736 350.677L324.363 350.677L334.13 268.675Z" fill="url(#paint26_linear)"/>
<path d="M394.888 328.169C385.876 328.169 378.57 335.475 378.57 344.488C378.57 353.5 385.876 360.807 394.888 360.807C403.901 360.807 411.207 353.5 411.207 344.488C411.207 335.475 403.901 328.169 394.888 328.169Z" fill="url(#paint27_linear)"/>
<path d="M302.583 328.169C293.57 328.169 286.264 335.475 286.264 344.488C286.264 353.5 293.57 360.807 302.583 360.807C311.596 360.807 318.902 353.5 318.902 344.488C318.902 335.475 311.596 328.169 302.583 328.169Z" fill="url(#paint28_linear)"/>
<path d="M294.784 358.825C293.521 356.508 292.803 353.851 292.803 351.026C292.803 342.014 300.109 334.707 309.122 334.707C311.946 334.707 314.604 335.425 316.921 336.689C314.154 331.613 308.771 328.169 302.584 328.169C293.571 328.169 286.265 335.475 286.265 344.488C286.265 350.676 289.709 356.059 294.784 358.825Z" fill="url(#paint29_linear)"/>
<path d="M378.924 347.196C366.81 347.196 356.99 357.016 356.99 369.13C356.99 381.244 366.81 391.063 378.924 391.063C391.037 391.063 400.857 381.244 400.857 369.13C400.857 357.016 391.037 347.196 378.924 347.196Z" fill="url(#paint30_linear)"/>
<path d="M368.441 388.4C366.743 385.286 365.778 381.715 365.778 377.918C365.778 365.804 375.598 355.984 387.712 355.984C391.509 355.984 395.08 356.95 398.194 358.647C394.476 351.825 387.24 347.196 378.924 347.196C366.81 347.196 356.99 357.016 356.99 369.13C356.99 377.447 361.619 384.682 368.441 388.4Z" fill="url(#paint31_linear)"/>
<path d="M318.548 347.196C306.434 347.196 296.614 357.016 296.614 369.13C296.614 381.243 306.434 391.063 318.548 391.063C330.661 391.063 340.481 381.244 340.481 369.13C340.481 357.016 330.661 347.196 318.548 347.196Z" fill="url(#paint32_linear)"/>
<path d="M308.065 388.4C306.367 385.286 305.402 381.715 305.402 377.918C305.402 365.804 315.222 355.984 327.336 355.984C331.133 355.984 334.704 356.95 337.818 358.647C334.1 351.825 326.864 347.196 318.548 347.196C306.434 347.196 296.614 357.016 296.614 369.13C296.614 377.447 301.243 384.682 308.065 388.4Z" fill="url(#paint33_linear)"/>
<path d="M348.736 349.065C330.062 349.065 314.925 364.202 314.925 382.876C314.925 401.549 330.062 416.687 348.736 416.687C367.409 416.687 382.547 401.549 382.547 382.876C382.547 364.202 367.409 349.065 348.736 349.065Z" fill="url(#paint34_linear)"/>
<path d="M332.577 412.581C329.96 407.78 328.471 402.275 328.471 396.422C328.471 377.749 343.609 362.611 362.282 362.611C368.135 362.611 373.64 364.099 378.441 366.716C372.709 356.201 361.556 349.065 348.736 349.065C330.063 349.065 314.925 364.202 314.925 382.875C314.925 395.696 322.061 406.849 332.577 412.581Z" fill="url(#paint35_linear)"/>
<path d="M334.078 326.159C323.955 326.159 315.749 334.365 315.749 344.488C315.749 354.611 323.955 362.817 334.078 362.817C344.201 362.817 352.408 354.611 352.408 344.488C352.408 334.365 344.201 326.159 334.078 326.159Z" fill="url(#paint36_linear)"/>
<path d="M325.318 360.592C323.9 357.989 323.093 355.005 323.093 351.832C323.093 341.709 331.299 333.502 341.422 333.502C344.595 333.502 347.579 334.309 350.182 335.728C347.075 330.027 341.029 326.159 334.078 326.159C323.956 326.159 315.749 334.365 315.749 344.488C315.749 351.438 319.618 357.484 325.318 360.592Z" fill="url(#paint37_linear)"/>
<path d="M363.393 326.159C353.27 326.159 345.064 334.365 345.064 344.488C345.064 354.611 353.27 362.817 363.393 362.817C373.516 362.817 381.722 354.611 381.722 344.488C381.722 334.365 373.516 326.159 363.393 326.159Z" fill="url(#paint38_linear)"/>
<path d="M334.13 268.675L331.529 290.509C331.53 290.509 331.53 290.509 331.53 290.509C336.817 289.89 342.674 289.564 348.736 289.564C354.798 289.564 360.655 289.89 365.941 290.509L344.107 268.675L334.13 268.675Z" fill="url(#paint39_linear)"/>
<path d="M321.534 309.708C321.722 309.752 322.551 309.954 323.385 310.156C324.511 310.428 325.685 309.945 326.292 308.958C327.252 307.4 326.396 305.36 324.613 304.949C324.352 304.889 324.151 304.843 324.048 304.822C320.369 304.05 317.983 303.244 316.443 302.557C315.052 301.935 315.051 299.962 316.443 299.34C317.982 298.653 320.368 297.847 324.045 297.075C326.145 296.636 328.439 296.257 330.882 295.942C336.293 295.248 342.419 294.876 348.736 294.876C355.053 294.876 361.179 295.248 366.589 295.942C369.032 296.257 371.327 296.636 373.427 297.075C377.103 297.847 379.489 298.653 381.028 299.34C382.423 299.963 382.413 301.938 381.017 302.561C379.985 303.021 378.573 303.534 376.649 304.054C375.016 304.497 374.198 306.327 374.974 307.836C375.434 308.735 376.359 309.277 377.336 309.277C377.566 309.277 377.796 309.245 378.026 309.185C385.413 307.185 389.01 304.483 389.01 300.949C389.01 297.096 384.736 294.232 375.937 292.192C372.959 291.502 369.585 290.939 365.941 290.51C360.654 289.891 354.798 289.565 348.735 289.565C342.673 289.565 336.817 289.891 331.53 290.51C327.887 290.939 324.512 291.502 321.534 292.192C312.735 294.232 308.461 297.096 308.461 300.949C308.461 304.801 312.735 307.665 321.534 309.708Z" fill="url(#paint40_linear)"/>
<path d="M358.111 247.988L391.02 247.988C393.175 247.988 394.79 249.986 394.31 252.086C392.449 260.236 385.155 266.317 376.441 266.317C366.318 266.317 358.111 258.111 358.111 247.988Z" fill="url(#paint41_linear)"/>
<path d="M322.447 247.987L374.469 247.987C374.469 262.353 362.823 273.999 348.458 273.999C334.092 273.999 322.447 262.353 322.447 247.987Z" fill="url(#paint42_linear)"/>
<path d="M308.572 247.987L334.376 247.987C334.376 256.183 327.732 262.826 319.538 262.826C312.863 262.826 307.218 258.419 305.353 252.357C304.685 250.187 306.301 247.987 308.572 247.987Z" fill="url(#paint43_linear)"/>
<path d="M396.479 263.865C392.459 263.865 389.201 267.123 389.201 271.142C389.201 275.161 392.459 278.419 396.479 278.419C400.498 278.419 403.756 275.161 403.756 271.142C403.756 267.123 400.498 263.865 396.479 263.865Z" fill="url(#paint44_linear)"/>
<path d="M315.749 266.721C311.73 266.721 308.472 269.979 308.472 273.998C308.472 278.017 311.73 281.275 315.749 281.275C319.768 281.275 323.026 278.017 323.026 273.998C323.026 269.979 319.768 266.721 315.749 266.721Z" fill="url(#paint45_linear)"/>
<path d="M386.934 279.14C384.056 279.14 381.722 281.473 381.722 284.352C381.722 287.23 384.056 289.564 386.934 289.564C389.813 289.564 392.147 287.23 392.147 284.352C392.147 281.473 389.813 279.14 386.934 279.14Z" fill="url(#paint46_linear)"/>
<path d="M325.337 280.127C323.003 280.127 321.111 282.018 321.111 284.352C321.111 286.685 323.003 288.577 325.337 288.577C327.67 288.577 329.562 286.685 329.562 284.352C329.562 282.018 327.67 280.127 325.337 280.127Z" fill="url(#paint47_linear)"/>
<path d="M305.201 308.763C302.867 308.763 300.976 310.655 300.976 312.988C300.976 315.322 302.867 317.213 305.201 317.213C307.534 317.213 309.426 315.322 309.426 312.988C309.426 310.655 307.534 308.763 305.201 308.763Z" fill="url(#paint48_linear)"/>
</g>
<g opacity="0.56" filter="url(#filter1_f)">
<path d="M464.038 56.9855C464.079 56.9855 464.12 56.9864 464.162 56.987C464.082 56.6586 464.038 56.3161 464.038 55.9629C464.038 53.5812 465.969 51.6503 468.351 51.6503C469.288 51.6503 470.154 51.9499 470.862 52.4573C472.334 50.2258 474.864 48.7524 477.738 48.7524C482.285 48.7524 485.971 52.4385 485.971 56.9855C485.971 57.0133 485.97 57.0412 485.97 57.069C488.858 57.5495 491.061 60.0597 491.061 63.0845C491.061 66.4531 488.33 69.1836 484.962 69.1836H464.038C460.67 69.1836 457.939 66.4531 457.939 63.0845C457.939 59.7163 460.67 56.9855 464.038 56.9855Z" fill="url(#paint49_radial)"/>
<path d="M457.939 63.0849C457.939 66.4535 460.67 69.184 464.038 69.184C467.407 69.184 470.137 66.4535 470.137 63.0849C470.137 59.7166 467.407 56.9858 464.038 56.9858C460.67 56.9858 457.939 59.7166 457.939 63.0849Z" fill="url(#paint50_linear)"/>
<path d="M464.038 55.9635C464.038 58.3455 465.969 60.2762 468.351 60.2762C470.733 60.2762 472.664 58.3455 472.664 55.9635C472.664 53.5818 470.733 51.6509 468.351 51.6509C465.969 51.6509 464.038 53.5818 464.038 55.9635Z" fill="url(#paint51_linear)"/>
<path d="M469.505 56.9855C469.505 61.5324 473.191 65.2185 477.738 65.2185C482.285 65.2185 485.971 61.5324 485.971 56.9855C485.971 52.4385 482.285 48.7524 477.738 48.7524C473.191 48.7524 469.505 52.4385 469.505 56.9855Z" fill="url(#paint52_linear)"/>
<path d="M478.863 63.0849C478.863 66.4535 481.593 69.184 484.962 69.184C488.33 69.184 491.061 66.4535 491.061 63.0849C491.061 59.7166 488.33 56.9858 484.962 56.9858C481.593 56.9858 478.863 59.7166 478.863 63.0849Z" fill="url(#paint53_linear)"/>
<path d="M491.004 63.9155C490.599 66.8909 488.048 69.1838 484.962 69.1838H464.038C460.951 69.1838 458.401 66.8909 457.996 63.9155H491.004Z" fill="url(#paint54_linear)"/>
<path d="M462.118 69.2552L462.436 68.937C462.887 68.4491 463.533 68.1431 464.251 68.1431C464.259 68.1431 464.267 68.1441 464.276 68.1441C464.281 68.1394 464.286 68.1344 464.291 68.1297L465.923 66.4975C466.633 65.7539 467.633 65.29 468.742 65.29C470.896 65.29 472.642 67.0358 472.642 69.1895C472.642 69.2004 472.641 69.2111 472.641 69.2214C472.688 69.2311 472.734 69.2426 472.779 69.2552H462.118Z" fill="url(#paint55_linear)"/>
</g>
<path d="M200.119 283.81C199.852 283.81 199.587 283.816 199.32 283.82C199.838 281.705 200.119 279.5 200.119 277.226C200.119 261.89 187.638 249.457 172.242 249.457C166.187 249.457 160.587 251.386 156.016 254.653C146.497 240.284 130.147 230.797 111.57 230.797C82.1818 230.797 58.359 254.532 58.359 283.81C58.359 283.989 58.3631 284.169 58.3651 284.348C39.6959 287.442 25.4604 303.605 25.4604 323.082C25.4604 344.773 43.1107 362.354 64.8813 362.354H200.119C221.889 362.354 239.54 344.773 239.54 323.082C239.54 301.394 221.889 283.81 200.119 283.81Z" fill="url(#paint56_radial)"/>
<path d="M239.54 323.082C239.54 344.773 221.889 362.354 200.119 362.354C178.346 362.354 160.698 344.773 160.698 323.082C160.698 301.394 178.346 283.81 200.119 283.81C221.889 283.81 239.54 301.394 239.54 323.082Z" fill="url(#paint57_linear)"/>
<path d="M200.119 277.226C200.119 292.564 187.638 304.995 172.242 304.995C156.848 304.995 144.368 292.564 144.368 277.226C144.368 261.89 156.848 249.457 172.242 249.457C187.638 249.457 200.119 261.89 200.119 277.226Z" fill="url(#paint58_linear)"/>
<path d="M164.784 283.81C164.784 313.088 140.961 336.823 111.572 336.823C82.1837 336.823 58.3589 313.088 58.3589 283.81C58.3589 254.532 82.1837 230.797 111.572 230.797C140.961 230.797 164.784 254.532 164.784 283.81Z" fill="url(#paint59_linear)"/>
<path d="M104.302 323.082C104.302 344.773 86.654 362.354 64.8813 362.354C43.1107 362.354 25.4604 344.773 25.4604 323.082C25.4604 301.394 43.1107 283.81 64.8813 283.81C86.654 283.81 104.302 301.394 104.302 323.082Z" fill="url(#paint60_linear)"/>
<path d="M25.8264 328.432C28.4446 347.591 44.9323 362.355 64.8813 362.355H200.119C220.07 362.355 236.556 347.591 239.174 328.432H25.8264Z" fill="url(#paint61_linear)"/>
<path d="M223.489 230.944C223.489 230.896 223.491 230.848 223.491 230.797C223.491 220.946 215.474 212.958 205.584 212.958C197.187 212.958 190.143 218.716 188.206 226.483C187.177 226.177 186.088 226.012 184.957 226.012C178.686 226.012 173.601 231.077 173.601 237.325C173.601 243.573 178.686 248.639 184.957 248.639H221.689C226.643 248.639 230.66 244.637 230.66 239.702C230.66 235.38 227.581 231.774 223.489 230.944Z" fill="url(#paint62_radial)"/>
<path d="M137.552 362.354L135.496 360.306C132.577 357.164 128.402 355.194 123.764 355.194C123.709 355.194 123.657 355.2 123.602 355.2C123.57 355.17 123.539 355.138 123.507 355.107L112.957 344.597C108.368 339.81 101.902 336.823 94.7329 336.823C80.8129 336.823 69.5273 348.064 69.5273 361.931C69.5273 362.002 69.5333 362.07 69.5333 362.137C69.2321 362.199 68.9369 362.274 68.6458 362.354H137.552Z" fill="url(#paint63_linear)"/>
<g filter="url(#filter2_f)">
<path d="M576.744 180.73C576.599 180.73 576.455 180.734 576.31 180.736C576.591 179.59 576.744 178.396 576.744 177.164C576.744 168.857 569.962 162.122 561.596 162.122C558.305 162.122 555.262 163.167 552.778 164.937C547.606 157.154 538.721 152.015 528.627 152.015C512.657 152.015 499.712 164.872 499.712 180.73C499.712 180.827 499.714 180.925 499.715 181.022C489.571 182.697 481.835 191.453 481.835 202.003C481.835 213.752 491.426 223.275 503.256 223.275H576.744C588.574 223.275 598.165 213.752 598.165 202.003C598.165 190.255 588.574 180.73 576.744 180.73Z" fill="url(#paint64_radial)"/>
<path d="M598.165 202.003C598.165 213.752 588.574 223.275 576.744 223.275C564.913 223.275 555.323 213.752 555.323 202.003C555.323 190.255 564.913 180.73 576.744 180.73C588.574 180.73 598.165 190.255 598.165 202.003Z" fill="url(#paint65_linear)"/>
<path d="M576.744 177.164C576.744 185.472 569.962 192.206 561.596 192.206C553.231 192.206 546.449 185.472 546.449 177.164C546.449 168.857 553.231 162.123 561.596 162.123C569.962 162.123 576.744 168.857 576.744 177.164Z" fill="url(#paint66_linear)"/>
<path d="M557.543 180.73C557.543 196.589 544.598 209.446 528.628 209.446C512.658 209.446 499.712 196.589 499.712 180.73C499.712 164.872 512.658 152.015 528.628 152.015C544.598 152.015 557.543 164.872 557.543 180.73Z" fill="url(#paint67_linear)"/>
<path d="M524.677 202.003C524.677 213.752 515.087 223.275 503.256 223.275C491.426 223.275 481.835 213.752 481.835 202.003C481.835 190.255 491.426 180.73 503.256 180.73C515.087 180.73 524.677 190.255 524.677 202.003Z" fill="url(#paint68_linear)"/>
<path d="M482.034 204.9C483.457 215.278 492.416 223.275 503.256 223.275H576.744C587.585 223.275 596.543 215.278 597.966 204.9H482.034Z" fill="url(#paint69_linear)"/>
<path d="M499.506 225.987C499.506 225.961 499.507 225.934 499.507 225.907C499.507 220.571 495.151 216.244 489.776 216.244C485.214 216.244 481.386 219.363 480.333 223.57C479.774 223.404 479.182 223.315 478.568 223.315C475.16 223.315 472.397 226.059 472.397 229.443C472.397 232.827 475.16 235.571 478.568 235.571H498.528C501.22 235.571 503.403 233.403 503.403 230.73C503.403 228.389 501.729 226.436 499.506 225.987Z" fill="url(#paint70_radial)"/>
<path d="M583.489 223.524L582.372 222.415C580.786 220.713 578.517 219.646 575.997 219.646C575.967 219.646 575.938 219.649 575.909 219.649C575.891 219.633 575.875 219.615 575.857 219.599L570.125 213.906C567.631 211.313 564.117 209.695 560.221 209.695C552.657 209.695 546.525 215.784 546.525 223.295C546.525 223.333 546.528 223.371 546.528 223.407C546.364 223.44 546.204 223.481 546.046 223.524H583.489Z" fill="url(#paint71_linear)"/>
</g>
<defs>
<filter id="filter0_f" x="180.161" y="5.94824" width="152.899" height="152.899" filterUnits="userSpaceOnUse" color-interpolation-filters="sRGB">
<feFlood flood-opacity="0" result="BackgroundImageFix"/>
<feBlend mode="normal" in="SourceGraphic" in2="BackgroundImageFix" result="shape"/>
<feGaussianBlur stdDeviation="3.5" result="effect1_foregroundBlur"/>
</filter>
<filter id="filter1_f" x="445" y="30" width="59" height="59" filterUnits="userSpaceOnUse" color-interpolation-filters="sRGB">
<feFlood flood-opacity="0" result="BackgroundImageFix"/>
<feBlend mode="normal" in="SourceGraphic" in2="BackgroundImageFix" result="shape"/>
<feGaussianBlur stdDeviation="4.5" result="effect1_foregroundBlur"/>
</filter>
<filter id="filter2_f" x="465" y="115" width="150" height="149" filterUnits="userSpaceOnUse" color-interpolation-filters="sRGB">
<feFlood flood-opacity="0" result="BackgroundImageFix"/>
<feBlend mode="normal" in="SourceGraphic" in2="BackgroundImageFix" result="shape"/>
<feGaussianBlur stdDeviation="1.5" result="effect1_foregroundBlur"/>
</filter>
<radialGradient id="paint0_radial" cx="0" cy="0" r="1" gradientUnits="userSpaceOnUse" gradientTransform="translate(275.608 38.4009) rotate(180) scale(85.14)">
<stop stop-color="#ECF7FF"/>
<stop offset="0.3473" stop-color="#E9F5FF"/>
<stop offset="0.62" stop-color="#DFF0FF"/>
<stop offset="0.8666" stop-color="#CEE7FF"/>
<stop offset="1" stop-color="#C2E0FF"/>
</radialGradient>
<linearGradient id="paint1_linear" x1="221.4" y1="95.2421" x2="209.128" y2="58.2172" gradientUnits="userSpaceOnUse">
<stop offset="0.0029" stop-color="#C2E0FF" stop-opacity="0"/>
<stop offset="0.0763" stop-color="#BFDCFD" stop-opacity="0.07451"/>
<stop offset="1" stop-color="#9EB2E7"/>
</linearGradient>
<linearGradient id="paint2_linear" x1="235.439" y1="69.9125" x2="219.661" y2="46.5186" gradientUnits="userSpaceOnUse">
<stop offset="0.0029" stop-color="#C2E0FF" stop-opacity="0"/>
<stop offset="0.0763" stop-color="#BFDCFD" stop-opacity="0.07451"/>
<stop offset="1" stop-color="#9EB2E7"/>
</linearGradient>
<linearGradient id="paint3_linear" x1="267.58" y1="69.7917" x2="267.58" y2="31.8005" gradientUnits="userSpaceOnUse">
<stop offset="0.0029" stop-color="#C2E0FF" stop-opacity="0"/>
<stop offset="0.0763" stop-color="#BFDCFD" stop-opacity="0.07451"/>
<stop offset="1" stop-color="#9EB2E7"/>
</linearGradient>
<linearGradient id="paint4_linear" x1="291.688" y1="94.8874" x2="316.595" y2="71.3477" gradientUnits="userSpaceOnUse">
<stop offset="0.0029" stop-color="#C2E0FF" stop-opacity="0"/>
<stop offset="0.0763" stop-color="#BFDCFD" stop-opacity="0.07451"/>
<stop offset="1" stop-color="#9EB2E7"/>
</linearGradient>
<linearGradient id="paint5_linear" x1="256.61" y1="100.229" x2="256.61" y2="128.998" gradientUnits="userSpaceOnUse">
<stop offset="0.0029" stop-color="#C2E0FF" stop-opacity="0"/>
<stop offset="0.0763" stop-color="#BFDCFD" stop-opacity="0.07451"/>
<stop offset="1" stop-color="#9EB2E7"/>
</linearGradient>
<linearGradient id="paint6_linear" x1="219.579" y1="128.584" x2="249.69" y2="98.4728" gradientUnits="userSpaceOnUse">
<stop offset="0.0029" stop-color="#C2E0FF" stop-opacity="0"/>
<stop offset="0.0763" stop-color="#BFDCFD" stop-opacity="0.07451"/>
<stop offset="1" stop-color="#9EB2E7"/>
</linearGradient>
<linearGradient id="paint7_linear" x1="255.177" y1="155.792" x2="316.311" y2="216.926" gradientUnits="userSpaceOnUse">
<stop stop-color="#FF4974"/>
<stop offset="0.2231" stop-color="#FB3F6C"/>
<stop offset="0.6075" stop-color="#F12357"/>
<stop offset="1" stop-color="#E4003D"/>
</linearGradient>
<linearGradient id="paint8_linear" x1="443.981" y1="155.792" x2="382.847" y2="216.926" gradientUnits="userSpaceOnUse">
<stop stop-color="#FF4974"/>
<stop offset="0.2231" stop-color="#FB3F6C"/>
<stop offset="0.6075" stop-color="#F12357"/>
<stop offset="1" stop-color="#E4003D"/>
</linearGradient>
<linearGradient id="paint9_linear" x1="428.266" y1="199.405" x2="359.816" y2="173.398" gradientUnits="userSpaceOnUse">
<stop stop-color="#A34A9E" stop-opacity="0"/>
<stop offset="1" stop-color="#343168"/>
</linearGradient>
<linearGradient id="paint10_linear" x1="339.195" y1="122.49" x2="403.53" y2="122.49" gradientUnits="userSpaceOnUse">
<stop stop-color="#D4F7FF"/>
<stop offset="1" stop-color="#A2E3E9"/>
</linearGradient>
<linearGradient id="paint11_linear" x1="381.891" y1="136.897" x2="261.382" y2="80.3315" gradientUnits="userSpaceOnUse">
<stop stop-color="#A2E3E9" stop-opacity="0"/>
<stop offset="1" stop-color="#518CD2"/>
</linearGradient>
<linearGradient id="paint12_linear" x1="375.488" y1="129.647" x2="321.379" y2="75.5381" gradientUnits="userSpaceOnUse">
<stop stop-color="#D4F7FF"/>
<stop offset="1" stop-color="#A2E3E9"/>
</linearGradient>
<linearGradient id="paint13_linear" x1="327.928" y1="82.0871" x2="368.04" y2="122.198" gradientUnits="userSpaceOnUse">
<stop stop-color="#D4F7FF"/>
<stop offset="1" stop-color="#A2E3E9"/>
</linearGradient>
<linearGradient id="paint14_linear" x1="329.906" y1="84.0646" x2="366.354" y2="120.513" gradientUnits="userSpaceOnUse">
<stop stop-color="#4F4A72"/>
<stop offset="1" stop-color="#3B395F"/>
</linearGradient>
<linearGradient id="paint15_linear" x1="343.518" y1="19.7065" x2="381.023" y2="19.7065" gradientUnits="userSpaceOnUse">
<stop stop-color="#FF4974"/>
<stop offset="0.2231" stop-color="#FB3F6C"/>
<stop offset="0.6075" stop-color="#F12357"/>
<stop offset="1" stop-color="#E4003D"/>
</linearGradient>
<linearGradient id="paint16_linear" x1="277.277" y1="221.962" x2="411.228" y2="221.962" gradientUnits="userSpaceOnUse">
<stop stop-color="#FFE548"/>
<stop offset="0.1758" stop-color="#FFDE50"/>
<stop offset="0.4446" stop-color="#FFCA65"/>
<stop offset="0.7709" stop-color="#FFAA87"/>
<stop offset="1" stop-color="#FF90A4"/>
</linearGradient>
<linearGradient id="paint17_linear" x1="348.887" y1="192.052" x2="436.335" y2="149.785" gradientUnits="userSpaceOnUse">
<stop stop-color="#A2E3E9" stop-opacity="0"/>
<stop offset="1" stop-color="#518CD2"/>
</linearGradient>
<linearGradient id="paint18_linear" x1="308.014" y1="232.74" x2="320.051" y2="244.203" gradientUnits="userSpaceOnUse">
<stop stop-color="#A34A9E"/>
<stop offset="0.1551" stop-color="#9B489A"/>
<stop offset="0.4019" stop-color="#84438F"/>
<stop offset="0.7073" stop-color="#5E3B7D"/>
<stop offset="1" stop-color="#343168"/>
</linearGradient>
<linearGradient id="paint19_linear" x1="322.511" y1="232.74" x2="334.547" y2="244.203" gradientUnits="userSpaceOnUse">
<stop stop-color="#A34A9E"/>
<stop offset="0.1551" stop-color="#9B489A"/>
<stop offset="0.4019" stop-color="#84438F"/>
<stop offset="0.7073" stop-color="#5E3B7D"/>
<stop offset="1" stop-color="#343168"/>
</linearGradient>
<linearGradient id="paint20_linear" x1="337.007" y1="232.74" x2="349.043" y2="244.203" gradientUnits="userSpaceOnUse">
<stop stop-color="#A34A9E"/>
<stop offset="0.1551" stop-color="#9B489A"/>
<stop offset="0.4019" stop-color="#84438F"/>
<stop offset="0.7073" stop-color="#5E3B7D"/>
<stop offset="1" stop-color="#343168"/>
</linearGradient>
<linearGradient id="paint21_linear" x1="351.504" y1="232.74" x2="363.54" y2="244.203" gradientUnits="userSpaceOnUse">
<stop stop-color="#A34A9E"/>
<stop offset="0.1551" stop-color="#9B489A"/>
<stop offset="0.4019" stop-color="#84438F"/>
<stop offset="0.7073" stop-color="#5E3B7D"/>
<stop offset="1" stop-color="#343168"/>
</linearGradient>
<linearGradient id="paint22_linear" x1="366" y1="232.74" x2="378.036" y2="244.203" gradientUnits="userSpaceOnUse">
<stop stop-color="#A34A9E"/>
<stop offset="0.1551" stop-color="#9B489A"/>
<stop offset="0.4019" stop-color="#84438F"/>
<stop offset="0.7073" stop-color="#5E3B7D"/>
<stop offset="1" stop-color="#343168"/>
</linearGradient>
<linearGradient id="paint23_linear" x1="380.496" y1="232.74" x2="392.533" y2="244.203" gradientUnits="userSpaceOnUse">
<stop stop-color="#A34A9E"/>
<stop offset="0.1551" stop-color="#9B489A"/>
<stop offset="0.4019" stop-color="#84438F"/>
<stop offset="0.7073" stop-color="#5E3B7D"/>
<stop offset="1" stop-color="#343168"/>
</linearGradient>
<linearGradient id="paint24_linear" x1="374.888" y1="368.532" x2="321.762" y2="315.406" gradientUnits="userSpaceOnUse">
<stop stop-color="white"/>
<stop offset="0.3043" stop-color="white"/>
<stop offset="0.8558" stop-color="#CFCFCF"/>
<stop offset="1" stop-color="#EEEEEE"/>
</linearGradient>
<linearGradient id="paint25_linear" x1="343.147" y1="309.237" x2="310.691" y2="289.025" gradientUnits="userSpaceOnUse">
<stop stop-color="white" stop-opacity="0"/>
<stop offset="0.6519" stop-color="#ECECEC" stop-opacity="0.652"/>
<stop offset="1" stop-color="#CECECE"/>
</linearGradient>
<linearGradient id="paint26_linear" x1="329.036" y1="304.136" x2="366.024" y2="331.412" gradientUnits="userSpaceOnUse">
<stop stop-color="white" stop-opacity="0"/>
<stop offset="0.6519" stop-color="white" stop-opacity="0.652"/>
<stop offset="1" stop-color="white"/>
</linearGradient>
<linearGradient id="paint27_linear" x1="391.726" y1="352.107" x2="403.411" y2="323.957" gradientUnits="userSpaceOnUse">
<stop stop-color="white"/>
<stop offset="0.3043" stop-color="white"/>
<stop offset="0.8558" stop-color="#ECECEC"/>
<stop offset="1" stop-color="#E9E9E9"/>
</linearGradient>
<linearGradient id="paint28_linear" x1="309.418" y1="351.322" x2="295.534" y2="337.439" gradientUnits="userSpaceOnUse">
<stop stop-color="white"/>
<stop offset="0.3043" stop-color="white"/>
<stop offset="0.8558" stop-color="#E4E4E4"/>
<stop offset="1" stop-color="#ECECEC"/>
</linearGradient>
<linearGradient id="paint29_linear" x1="299.154" y1="343.19" x2="261.521" y2="351.584" gradientUnits="userSpaceOnUse">
<stop stop-color="white" stop-opacity="0"/>
<stop offset="0.6519" stop-color="white" stop-opacity="0.652"/>
<stop offset="1" stop-color="white"/>
</linearGradient>
<linearGradient id="paint30_linear" x1="388.11" y1="378.316" x2="369.449" y2="359.656" gradientUnits="userSpaceOnUse">
<stop stop-color="white"/>
<stop offset="0.3043" stop-color="white"/>
<stop offset="0.8558" stop-color="#E8E8E8"/>
<stop offset="1" stop-color="#D2D2D2"/>
</linearGradient>
<linearGradient id="paint31_linear" x1="374.315" y1="367.385" x2="323.733" y2="378.667" gradientUnits="userSpaceOnUse">
<stop stop-color="white" stop-opacity="0"/>
<stop offset="0.6519" stop-color="#EDEDED" stop-opacity="0.652"/>
<stop offset="1" stop-color="#ECECEC"/>
</linearGradient>
<linearGradient id="paint32_linear" x1="327.734" y1="378.316" x2="309.073" y2="359.656" gradientUnits="userSpaceOnUse">
<stop stop-color="#F3F3F3"/>
<stop offset="0.3043" stop-color="white"/>
<stop offset="0.8558" stop-color="#E2E2E2"/>
<stop offset="1" stop-color="#E7E7E7"/>
</linearGradient>
<linearGradient id="paint33_linear" x1="313.939" y1="367.385" x2="263.357" y2="378.667" gradientUnits="userSpaceOnUse">
<stop stop-color="white" stop-opacity="0"/>
<stop offset="0.6519" stop-color="white" stop-opacity="0.652"/>
<stop offset="1" stop-color="white"/>
</linearGradient>
<linearGradient id="paint34_linear" x1="362.896" y1="397.036" x2="334.131" y2="368.271" gradientUnits="userSpaceOnUse">
<stop stop-color="#FDFDFD"/>
<stop offset="0.3043" stop-color="#FEFEFE"/>
<stop offset="0.8558" stop-color="#D5D5D5"/>
<stop offset="1" stop-color="#EAEAEA"/>
</linearGradient>
<linearGradient id="paint35_linear" x1="341.631" y1="380.186" x2="263.66" y2="397.578" gradientUnits="userSpaceOnUse">
<stop stop-color="white" stop-opacity="0"/>
<stop offset="0.6519" stop-color="white" stop-opacity="0.652"/>
<stop offset="1" stop-color="white"/>
</linearGradient>
<linearGradient id="paint36_linear" x1="341.755" y1="352.165" x2="326.161" y2="336.57" gradientUnits="userSpaceOnUse">
<stop stop-color="#FDFDFD"/>
<stop offset="0.3043" stop-color="#FEFEFE"/>
<stop offset="0.8558" stop-color="#E9E9E9"/>
<stop offset="1" stop-color="#E1E1E1"/>
</linearGradient>
<linearGradient id="paint37_linear" x1="330.227" y1="343.03" x2="287.957" y2="352.458" gradientUnits="userSpaceOnUse">
<stop stop-color="white" stop-opacity="0"/>
<stop offset="0.6519" stop-color="white" stop-opacity="0.652"/>
<stop offset="1" stop-color="white"/>
</linearGradient>
<linearGradient id="paint38_linear" x1="363.661" y1="350.497" x2="362.481" y2="324.058" gradientUnits="userSpaceOnUse">
<stop stop-color="#F7F7F7"/>
<stop offset="0.3043" stop-color="#F7F7F7"/>
<stop offset="0.8558" stop-color="#CDCDCD"/>
<stop offset="1" stop-color="#FFA325"/>
<stop offset="1" stop-color="#E8E8E8"/>
</linearGradient>
<linearGradient id="paint39_linear" x1="346.874" y1="272.738" x2="349.235" y2="295.282" gradientUnits="userSpaceOnUse">
<stop stop-color="white" stop-opacity="0"/>
<stop offset="0.6519" stop-color="white" stop-opacity="0.652"/>
<stop offset="1" stop-color="white"/>
</linearGradient>
<linearGradient id="paint40_linear" x1="369.928" y1="322.141" x2="327.543" y2="279.755" gradientUnits="userSpaceOnUse">
<stop stop-color="#EDEDED"/>
<stop offset="0.3043" stop-color="white"/>
<stop offset="0.8558" stop-color="#CDCDCD"/>
<stop offset="1" stop-color="#D0D0D0"/>
</linearGradient>
<linearGradient id="paint41_linear" x1="382.406" y1="258.924" x2="369.095" y2="245.614" gradientUnits="userSpaceOnUse">
<stop stop-color="#FEFEFE"/>
<stop offset="0.3043" stop-color="#F9F9F9"/>
<stop offset="0.8558" stop-color="#DADADA"/>
<stop offset="1" stop-color="#DFDFDF"/>
</linearGradient>
<linearGradient id="paint42_linear" x1="357.756" y1="262.673" x2="338.868" y2="243.784" gradientUnits="userSpaceOnUse">
<stop stop-color="#FBFBFB"/>
<stop offset="0.3043" stop-color="#F0F0F0"/>
<stop offset="0.8558" stop-color="#D0D0D0"/>
<stop offset="1" stop-color="#DFDFDF"/>
</linearGradient>
<linearGradient id="paint43_linear" x1="325.094" y1="256.618" x2="315.064" y2="246.588" gradientUnits="userSpaceOnUse">
<stop stop-color="#FBFBFB"/>
<stop offset="0.3043" stop-color="#FEFEFE"/>
<stop offset="0.8558" stop-color="#EBEBEB"/>
<stop offset="1" stop-color="#EAEAEA"/>
</linearGradient>
<linearGradient id="paint44_linear" x1="400.669" y1="275.332" x2="390.347" y2="265.011" gradientUnits="userSpaceOnUse">
<stop stop-color="#FBFBFB"/>
<stop offset="0.3043" stop-color="#FDFDFD"/>
<stop offset="0.8558" stop-color="#E0E0E0"/>
<stop offset="1" stop-color="#DCDCDC"/>
</linearGradient>
<linearGradient id="paint45_linear" x1="319.939" y1="278.188" x2="309.618" y2="267.867" gradientUnits="userSpaceOnUse">
<stop stop-color="white"/>
<stop offset="0.3043" stop-color="#F2F2F2"/>
<stop offset="0.8558" stop-color="#CFCFCF"/>
<stop offset="1" stop-color="#D2D2D2"/>
</linearGradient>
<linearGradient id="paint46_linear" x1="389.935" y1="287.353" x2="382.543" y2="279.961" gradientUnits="userSpaceOnUse">
<stop stop-color="white"/>
<stop offset="0.3043" stop-color="white"/>
<stop offset="0.8558" stop-color="white"/>
<stop offset="1" stop-color="white"/>
</linearGradient>
<linearGradient id="paint47_linear" x1="327.769" y1="286.784" x2="321.777" y2="280.792" gradientUnits="userSpaceOnUse">
<stop stop-color="white"/>
<stop offset="0.3043" stop-color="white"/>
<stop offset="0.765625" stop-color="white"/>
<stop offset="0.8558" stop-color="white"/>
<stop offset="1" stop-color="white"/>
</linearGradient>
<linearGradient id="paint48_linear" x1="307.633" y1="315.421" x2="301.641" y2="309.429" gradientUnits="userSpaceOnUse">
<stop stop-color="white"/>
<stop offset="0.3043" stop-color="white"/>
<stop offset="0.765625" stop-color="white"/>
<stop offset="0.8558" stop-color="white"/>
<stop offset="1" stop-color="white"/>
</linearGradient>
<radialGradient id="paint49_radial" cx="0" cy="0" r="1" gradientUnits="userSpaceOnUse" gradientTransform="translate(480.108 46.5128) rotate(180) scale(25.1315)">
<stop stop-color="#ECF7FF"/>
<stop offset="0.3473" stop-color="#E9F5FF"/>
<stop offset="0.62" stop-color="#DFF0FF"/>
<stop offset="0.8666" stop-color="#CEE7FF"/>
<stop offset="1" stop-color="#C2E0FF"/>
</radialGradient>
<linearGradient id="paint50_linear" x1="464.107" y1="63.2915" x2="460.484" y2="52.3626" gradientUnits="userSpaceOnUse">
<stop offset="0.0029" stop-color="#C2E0FF" stop-opacity="0"/>
<stop offset="0.0763" stop-color="#BFDCFD" stop-opacity="0.07451"/>
<stop offset="1" stop-color="#9EB2E7"/>
</linearGradient>
<linearGradient id="paint51_linear" x1="468.251" y1="55.8151" x2="463.593" y2="48.9097" gradientUnits="userSpaceOnUse">
<stop offset="0.0029" stop-color="#C2E0FF" stop-opacity="0"/>
<stop offset="0.0763" stop-color="#BFDCFD" stop-opacity="0.07451"/>
<stop offset="1" stop-color="#9EB2E7"/>
</linearGradient>
<linearGradient id="paint52_linear" x1="477.738" y1="55.7787" x2="477.738" y2="44.5645" gradientUnits="userSpaceOnUse">
<stop offset="0.0029" stop-color="#C2E0FF" stop-opacity="0"/>
<stop offset="0.0763" stop-color="#BFDCFD" stop-opacity="0.07451"/>
<stop offset="1" stop-color="#9EB2E7"/>
</linearGradient>
<linearGradient id="paint53_linear" x1="484.854" y1="63.1868" x2="492.206" y2="56.2384" gradientUnits="userSpaceOnUse">
<stop offset="0.0029" stop-color="#C2E0FF" stop-opacity="0"/>
<stop offset="0.0763" stop-color="#BFDCFD" stop-opacity="0.07451"/>
<stop offset="1" stop-color="#9EB2E7"/>
</linearGradient>
<linearGradient id="paint54_linear" x1="474.5" y1="64.7635" x2="474.5" y2="73.2553" gradientUnits="userSpaceOnUse">
<stop offset="0.0029" stop-color="#C2E0FF" stop-opacity="0"/>
<stop offset="0.0763" stop-color="#BFDCFD" stop-opacity="0.07451"/>
<stop offset="1" stop-color="#9EB2E7"/>
</linearGradient>
<linearGradient id="paint55_linear" x1="463.569" y1="73.133" x2="472.457" y2="64.245" gradientUnits="userSpaceOnUse">
<stop offset="0.0029" stop-color="#C2E0FF" stop-opacity="0"/>
<stop offset="0.0763" stop-color="#BFDCFD" stop-opacity="0.07451"/>
<stop offset="1" stop-color="#9EB2E7"/>
</linearGradient>
<radialGradient id="paint56_radial" cx="0" cy="0" r="1" gradientUnits="userSpaceOnUse" gradientTransform="translate(96.2547 216.376) scale(162.435 161.822)">
<stop stop-color="#ECF7FF"/>
<stop offset="0.3473" stop-color="#E9F5FF"/>
<stop offset="0.62" stop-color="#DFF0FF"/>
<stop offset="0.8666" stop-color="#CEE7FF"/>
<stop offset="1" stop-color="#C2E0FF"/>
</radialGradient>
<linearGradient id="paint57_linear" x1="199.676" y1="324.412" x2="222.931" y2="253.988" gradientUnits="userSpaceOnUse">
<stop offset="0.0029" stop-color="#C2E0FF" stop-opacity="0"/>
<stop offset="0.0763" stop-color="#BFDCFD" stop-opacity="0.07451"/>
<stop offset="1" stop-color="#9EB2E7"/>
</linearGradient>
<linearGradient id="paint58_linear" x1="172.891" y1="276.27" x2="202.838" y2="231.701" gradientUnits="userSpaceOnUse">
<stop offset="0.0029" stop-color="#C2E0FF" stop-opacity="0"/>
<stop offset="0.0763" stop-color="#BFDCFD" stop-opacity="0.07451"/>
<stop offset="1" stop-color="#9EB2E7"/>
</linearGradient>
<linearGradient id="paint59_linear" x1="111.572" y1="276.039" x2="111.572" y2="203.831" gradientUnits="userSpaceOnUse">
<stop offset="0.0029" stop-color="#C2E0FF" stop-opacity="0"/>
<stop offset="0.0763" stop-color="#BFDCFD" stop-opacity="0.07451"/>
<stop offset="1" stop-color="#9EB2E7"/>
</linearGradient>
<linearGradient id="paint60_linear" x1="65.5777" y1="323.738" x2="18.2272" y2="278.819" gradientUnits="userSpaceOnUse">
<stop offset="0.0029" stop-color="#C2E0FF" stop-opacity="0"/>
<stop offset="0.0763" stop-color="#BFDCFD" stop-opacity="0.07451"/>
<stop offset="1" stop-color="#9EB2E7"/>
</linearGradient>
<linearGradient id="paint61_linear" x1="132.5" y1="333.892" x2="132.5" y2="388.571" gradientUnits="userSpaceOnUse">
<stop offset="0.0029" stop-color="#C2E0FF" stop-opacity="0"/>
<stop offset="0.0763" stop-color="#BFDCFD" stop-opacity="0.07451"/>
<stop offset="1" stop-color="#9EB2E7"/>
</linearGradient>
<radialGradient id="paint62_radial" cx="0" cy="0" r="1" gradientUnits="userSpaceOnUse" gradientTransform="translate(190.812 211.789) scale(47.0483 46.8708)">
<stop stop-color="#ECF7FF"/>
<stop offset="1" stop-color="#C2E0FF"/>
</radialGradient>
<linearGradient id="paint63_linear" x1="128.171" y1="387.324" x2="70.9407" y2="329.877" gradientUnits="userSpaceOnUse">
<stop offset="0.0029" stop-color="#C2E0FF" stop-opacity="0"/>
<stop offset="0.0763" stop-color="#BFDCFD" stop-opacity="0.07451"/>
<stop offset="1" stop-color="#9EB2E7"/>
</linearGradient>
<radialGradient id="paint64_radial" cx="0" cy="0" r="1" gradientUnits="userSpaceOnUse" gradientTransform="translate(520.304 144.204) scale(88.2666 87.6536)">
<stop stop-color="#ECF7FF"/>
<stop offset="0.3473" stop-color="#E9F5FF"/>
<stop offset="0.62" stop-color="#DFF0FF"/>
<stop offset="0.8666" stop-color="#CEE7FF"/>
<stop offset="1" stop-color="#C2E0FF"/>
</radialGradient>
<linearGradient id="paint65_linear" x1="576.503" y1="202.723" x2="589.067" y2="164.553" gradientUnits="userSpaceOnUse">
<stop offset="0.0029" stop-color="#C2E0FF" stop-opacity="0"/>
<stop offset="0.0763" stop-color="#BFDCFD" stop-opacity="0.07451"/>
<stop offset="1" stop-color="#9EB2E7"/>
</linearGradient>
<linearGradient id="paint66_linear" x1="561.948" y1="176.646" x2="578.15" y2="152.457" gradientUnits="userSpaceOnUse">
<stop offset="0.0029" stop-color="#C2E0FF" stop-opacity="0"/>
<stop offset="0.0763" stop-color="#BFDCFD" stop-opacity="0.07451"/>
<stop offset="1" stop-color="#9EB2E7"/>
</linearGradient>
<linearGradient id="paint67_linear" x1="528.628" y1="176.521" x2="528.628" y2="137.408" gradientUnits="userSpaceOnUse">
<stop offset="0.0029" stop-color="#C2E0FF" stop-opacity="0"/>
<stop offset="0.0763" stop-color="#BFDCFD" stop-opacity="0.07451"/>
<stop offset="1" stop-color="#9EB2E7"/>
</linearGradient>
<linearGradient id="paint68_linear" x1="503.635" y1="202.358" x2="477.982" y2="177.945" gradientUnits="userSpaceOnUse">
<stop offset="0.0029" stop-color="#C2E0FF" stop-opacity="0"/>
<stop offset="0.0763" stop-color="#BFDCFD" stop-opacity="0.07451"/>
<stop offset="1" stop-color="#9EB2E7"/>
</linearGradient>
<linearGradient id="paint69_linear" x1="540" y1="207.858" x2="540" y2="237.476" gradientUnits="userSpaceOnUse">
<stop offset="0.0029" stop-color="#C2E0FF" stop-opacity="0"/>
<stop offset="0.0763" stop-color="#BFDCFD" stop-opacity="0.07451"/>
<stop offset="1" stop-color="#9EB2E7"/>
</linearGradient>
<radialGradient id="paint70_radial" cx="0" cy="0" r="1" gradientUnits="userSpaceOnUse" gradientTransform="translate(481.749 215.611) scale(25.5659 25.3883)">
<stop stop-color="#ECF7FF"/>
<stop offset="1" stop-color="#C2E0FF"/>
</radialGradient>
<linearGradient id="paint71_linear" x1="578.391" y1="237.05" x2="547.392" y2="205.834" gradientUnits="userSpaceOnUse">
<stop offset="0.0029" stop-color="#C2E0FF" stop-opacity="0"/>
<stop offset="0.0763" stop-color="#BFDCFD" stop-opacity="0.07451"/>
<stop offset="1" stop-color="#9EB2E7"/>
</linearGradient>
<clipPath id="clip0">
<rect width="247.988" height="247.988" fill="white" transform="translate(225.585)"/>
</clipPath>
<clipPath id="clip1">
<rect width="168.699" height="168.699" fill="white" transform="translate(433.085 416.687) rotate(-180)"/>
</clipPath>
</defs>
</svg>
