<svg width="64" height="64" viewBox="0 0 64 64" fill="none" xmlns="http://www.w3.org/2000/svg">
<rect width="64" height="64" rx="4" fill="url(#paint0_linear)"/>
<g clip-path="url(#clip0)">
<path d="M52.9589 24.3481C52.8605 22.1165 52.4996 20.5823 51.9826 19.2529C51.4493 17.8417 50.6288 16.5783 49.5539 15.528C48.5036 14.4614 47.2319 13.6326 45.8371 13.1076C44.5 12.5907 42.9738 12.2298 40.7422 12.1314C38.4939 12.0247 37.7801 12 32.0778 12C26.3755 12 25.6618 12.0247 23.4218 12.1231C21.1902 12.2215 19.656 12.5827 18.3269 13.0993C16.9154 13.6326 15.652 14.4531 14.6018 15.528C13.5351 16.5783 12.7067 17.85 12.1814 19.2448C11.6644 20.5823 11.3035 22.1082 11.2051 24.3398C11.0984 26.5881 11.0737 27.3018 11.0737 33.0041C11.0737 38.7064 11.0984 39.4201 11.1968 41.6601C11.2952 43.8917 11.6564 45.4259 12.1734 46.7554C12.7067 48.1665 13.5351 49.4299 14.6018 50.4802C15.652 51.5468 16.9238 52.3756 18.3186 52.9006C19.656 53.4175 21.1819 53.7784 23.4138 53.8768C25.6535 53.9755 26.3675 53.9999 32.0698 53.9999C37.7721 53.9999 38.4859 53.9755 40.7258 53.8768C42.9574 53.7784 44.4916 53.4175 45.8208 52.9006C48.6434 51.8093 50.875 49.5777 51.9663 46.7554C52.4829 45.4179 52.8441 43.8917 52.9425 41.6601C53.0409 39.4201 53.0656 38.7064 53.0656 33.0041C53.0656 27.3018 53.0573 26.5881 52.9589 24.3481ZM49.1767 41.496C49.0863 43.5472 48.7418 44.6548 48.4546 45.3932C47.7489 47.223 46.2967 48.6751 44.467 49.3809C43.7285 49.668 42.6129 50.0126 40.5697 50.1026C38.3545 50.2013 37.6901 50.2257 32.0862 50.2257C26.4823 50.2257 25.8095 50.2013 23.6023 50.1026C21.5511 50.0126 20.4435 49.668 19.705 49.3809C18.7945 49.0443 17.9657 48.511 17.293 47.8136C16.5956 47.1326 16.0623 46.3121 15.7257 45.4016C15.4386 44.6631 15.094 43.5472 15.004 41.5043C14.9053 39.2891 14.8809 38.6243 14.8809 33.0204C14.8809 27.4166 14.9053 26.7438 15.004 24.5369C15.094 22.4857 15.4386 21.3781 15.7257 20.6396C16.0623 19.7288 16.5956 18.9003 17.3013 18.2273C17.982 17.5299 18.8025 16.9966 19.7134 16.6603C20.4518 16.3732 21.5678 16.0286 23.6106 15.9383C25.8259 15.8399 26.4906 15.8152 32.0942 15.8152C37.7064 15.8152 38.3708 15.8399 40.5781 15.9383C42.6292 16.0286 43.7369 16.3732 44.4753 16.6603C45.3858 16.9966 46.2146 17.5299 46.8874 18.2273C47.5848 18.9083 48.1181 19.7288 48.4546 20.6396C48.7418 21.3781 49.0863 22.4937 49.1767 24.5369C49.2751 26.7522 49.2997 27.4166 49.2997 33.0204C49.2997 38.6243 49.2751 39.2807 49.1767 41.496Z" fill="white"/>
<path d="M32.0778 22.2148C26.1214 22.2148 21.2886 27.0473 21.2886 33.0041C21.2886 38.9608 26.1214 43.7933 32.0778 43.7933C38.0346 43.7933 42.867 38.9608 42.867 33.0041C42.867 27.0473 38.0346 22.2148 32.0778 22.2148ZM32.0778 40.0028C28.2136 40.0028 25.0791 36.8686 25.0791 33.0041C25.0791 29.1395 28.2136 26.0054 32.0778 26.0054C35.9423 26.0054 39.0765 29.1395 39.0765 33.0041C39.0765 36.8686 35.9423 40.0028 32.0778 40.0028Z" fill="white"/>
<path d="M45.8128 21.7883C45.8128 23.1793 44.685 24.3071 43.2937 24.3071C41.9027 24.3071 40.7749 23.1793 40.7749 21.7883C40.7749 20.397 41.9027 19.2695 43.2937 19.2695C44.685 19.2695 45.8128 20.397 45.8128 21.7883Z" fill="white"/>
</g>
<defs>
<linearGradient id="paint0_linear" x1="64" y1="0" x2="3" y2="64" gradientUnits="userSpaceOnUse">
<stop stop-color="#7C1CC7"/>
<stop offset="0.309068" stop-color="#BF1D9C"/>
<stop offset="0.674144" stop-color="#F42975"/>
<stop offset="1" stop-color="#FACE0D"/>
</linearGradient>
<clipPath id="clip0">
<rect width="42" height="42" fill="white" transform="translate(11 12)"/>
</clipPath>
</defs>
</svg>
