<svg width="65" height="64" viewBox="0 0 65 64" fill="none" xmlns="http://www.w3.org/2000/svg">
<path d="M0.5 4C0.5 1.79086 2.29086 0 4.5 0H60.5C62.7091 0 64.5 1.79086 64.5 4V60C64.5 62.2091 62.7091 64 60.5 64H4.5C2.29086 64 0.5 62.2091 0.5 60V4Z" fill="#DC2FC0"/>
<path d="M0.5 4C0.5 1.79086 2.29086 0 4.5 0H60.5C62.7091 0 64.5 1.79086 64.5 4V60C64.5 62.2091 62.7091 64 60.5 64H4.5C2.29086 64 0.5 62.2091 0.5 60V4Z" fill="#DC2FC0"/>
<path d="M0.5 4C0.5 1.79086 2.29086 0 4.5 0H60.5C62.7091 0 64.5 1.79086 64.5 4V60C64.5 62.2091 62.7091 64 60.5 64H4.5C2.29086 64 0.5 62.2091 0.5 60V4Z" fill="#0077B7"/>
<g clip-path="url(#clip0)">
<path d="M53.9896 51.9999V51.9981H54.0001V36.5946C54.0001 29.0591 52.3778 23.2544 43.5683 23.2544C39.3333 23.2544 36.4913 25.5784 35.3311 27.7816H35.2086V23.9579H26.8558V51.9981H35.5533V38.1136C35.5533 34.4579 36.2463 30.9229 40.7736 30.9229C45.2343 30.9229 45.3008 35.0949 45.3008 38.3481V51.9999H53.9896Z" fill="white"/>
<path d="M12.693 23.96H21.401V52.0002H12.693V23.96Z" fill="white"/>
<path d="M17.0435 10C14.2592 10 12 12.2593 12 15.0435C12 17.8278 14.2592 20.1343 17.0435 20.1343C19.8277 20.1343 22.087 17.8278 22.087 15.0435C22.0852 12.2593 19.826 10 17.0435 10V10Z" fill="white"/>
</g>
<defs>
<clipPath id="clip0">
<rect width="42" height="42" fill="white" transform="translate(12 10)"/>
</clipPath>
</defs>
</svg>
