<svg width="64" height="64" viewBox="0 0 64 64" fill="none" xmlns="http://www.w3.org/2000/svg">
<rect width="64" height="64" rx="4" fill="#4CAF50"/>
<path fill-rule="evenodd" clip-rule="evenodd" d="M45.9281 18.0142C42.2444 14.3261 37.3453 12.2942 32.1262 12.292C21.3716 12.292 12.6189 21.0444 12.6146 31.8019C12.6131 35.2407 13.5115 38.5976 15.219 41.5565L12.4509 51.667L22.7943 48.9537C25.6443 50.5084 28.8529 51.3276 32.1182 51.3286H32.1264C42.8798 51.3286 51.6334 42.5755 51.6375 31.8175C51.6397 26.6039 49.612 21.702 45.9281 18.0142ZM32.1262 48.0335H32.1194C29.2096 48.0323 26.3557 47.2503 23.8654 45.773L23.2735 45.4214L17.1356 47.0316L18.7739 41.0472L18.3882 40.4337C16.7648 37.8516 15.9075 34.8672 15.909 31.8031C15.9123 22.8618 23.1875 15.5873 32.1327 15.5873C36.4643 15.5888 40.5361 17.2778 43.5979 20.3432C46.6596 23.4085 48.3448 27.483 48.3434 31.8163C48.3395 40.7584 41.0648 48.0335 32.1262 48.0335ZM41.0216 35.8877C40.5342 35.6435 38.1372 34.4645 37.6902 34.3015C37.2437 34.1388 36.9183 34.0578 36.5936 34.5457C36.2684 35.0336 35.3343 36.1318 35.0497 36.457C34.7652 36.7824 34.4811 36.8233 33.9935 36.5791C33.5059 36.3352 31.9351 35.8201 30.0728 34.1592C28.6237 32.8665 27.6453 31.27 27.3607 30.7822C27.0767 30.2938 27.3583 30.0554 27.5746 29.7872C28.1024 29.1319 28.6309 28.4448 28.7933 28.1196C28.956 27.7942 28.8746 27.5094 28.7525 27.2655C28.6309 27.0216 27.6559 24.6219 27.2497 23.6455C26.8537 22.6952 26.4521 22.8236 26.1526 22.8087C25.8686 22.7945 25.5434 22.7916 25.2182 22.7916C24.8933 22.7916 24.3651 22.9134 23.9181 23.4018C23.4713 23.8899 22.212 25.0692 22.212 27.4688C22.212 29.8685 23.9589 32.1867 24.2026 32.5121C24.4463 32.8375 27.6405 37.7617 32.5309 39.8732C33.6941 40.376 34.602 40.6757 35.3102 40.9004C36.4782 41.2715 37.5407 41.2191 38.3809 41.0936C39.3177 40.9535 41.265 39.9141 41.6717 38.7754C42.0778 37.6365 42.0778 36.6606 41.9557 36.457C41.8341 36.2537 41.509 36.1318 41.0216 35.8877Z" fill="white"/>
</svg>
